# xmcd
#
# Track frame offsets:
# 150
# 34185
# 56475
# 77005
# 100530
#
# Disc length: 1491 seconds
#
# Revision: 0
# Processed by: cddbd v1.5.1PL2 Copyright (c) Steve Scherf et al.
# Submitted via: Audion 3.0.2 (http://www.panic.com/audion/)
#
DISCID=3005d105
DTITLE=Michael Louis/Mikey "Chops" Laconte - Jammin' in the Country 2006
DYEAR=1900
DGENRE=
TTITLE0=Country Jam in the Country
TTITLE1=Funky Chops
TTITLE2=Baby Say
TTITLE3=Country/Rockabilly Riff
TTITLE4=Swingin' Like Tarzan on a Vine
EXTD=
EXTT0=
EXTT1=
EXTT2=
EXTT3=
EXTT4=
PLAYORDER=
